<svg width="320" height="152" viewBox="0 0 320 152" fill="none" xmlns="http://www.w3.org/2000/svg">
<rect x="7" y="20" width="54" height="96.46" fill="#3F6528"/>
<rect x="13.1132" y="26.46" width="41.7736" height="90" fill="#547E39"/>
<path d="M55 113.46H13C30.6 113.46 55 81.46 55 49.46V113.46Z" fill="black" fill-opacity="0.1"/>
<rect x="2" y="113.46" width="64" height="3" fill="#223616"/>
<path d="M25.8 38.46H43.8V50.46H39.8H34.8H25.8V38.46Z" fill="black" fill-opacity="0.15"/>
<path d="M25 37.46H43V49.46H39H34H25V37.46Z" fill="#E0CAA3"/>
<path d="M31.2922 40.9057C31.2836 40.8197 31.2471 40.753 31.1824 40.7054C31.1178 40.6578 31.0301 40.634 30.9193 40.634C30.844 40.634 30.7805 40.6447 30.7286 40.666C30.6768 40.6866 30.637 40.7153 30.6093 40.7523C30.5823 40.7892 30.5688 40.8311 30.5688 40.878C30.5674 40.917 30.5756 40.9511 30.5933 40.9802C30.6118 41.0094 30.637 41.0346 30.6689 41.0559C30.7009 41.0765 30.7378 41.0946 30.7797 41.1102C30.8216 41.1251 30.8664 41.1379 30.914 41.1486L31.11 41.1954C31.2052 41.2167 31.2925 41.2452 31.3721 41.2807C31.4516 41.3162 31.5205 41.3599 31.5787 41.4117C31.637 41.4636 31.6821 41.5246 31.714 41.5949C31.7467 41.6653 31.7634 41.7459 31.7641 41.8368C31.7634 41.9703 31.7293 42.0861 31.6618 42.1841C31.5951 42.2814 31.4985 42.357 31.3721 42.411C31.2464 42.4643 31.0947 42.4909 30.9172 42.4909C30.741 42.4909 30.5876 42.4639 30.4569 42.4099C30.327 42.356 30.2254 42.2761 30.1523 42.1702C30.0798 42.0637 30.0418 41.9319 30.0383 41.775H30.4846C30.4896 41.8481 30.5106 41.9092 30.5475 41.9582C30.5851 42.0065 30.6352 42.0431 30.6977 42.068C30.7609 42.0921 30.8323 42.1042 30.9118 42.1042C30.99 42.1042 31.0578 42.0928 31.1153 42.0701C31.1736 42.0474 31.2187 42.0158 31.2506 41.9753C31.2826 41.9348 31.2986 41.8883 31.2986 41.8357C31.2986 41.7867 31.284 41.7455 31.2549 41.7121C31.2265 41.6787 31.1846 41.6503 31.1292 41.6269C31.0745 41.6035 31.0074 41.5822 30.9278 41.563L30.6903 41.5033C30.5063 41.4586 30.3611 41.3886 30.2545 41.2935C30.148 41.1983 30.0951 41.0701 30.0958 40.9089C30.0951 40.7768 30.1302 40.6613 30.2013 40.5626C30.273 40.4639 30.3714 40.3868 30.4964 40.3314C30.6214 40.2761 30.7634 40.2484 30.9225 40.2484C31.0844 40.2484 31.2258 40.2761 31.3465 40.3314C31.468 40.3868 31.5624 40.4639 31.6299 40.5626C31.6974 40.6613 31.7322 40.7757 31.7343 40.9057H31.2922ZM32.4007 42.46H31.9063L32.6595 40.2782H33.254L34.0061 42.46H33.5118L32.9653 40.7768H32.9482L32.4007 42.46ZM32.3698 41.6024H33.5374V41.9625H32.3698V41.6024ZM34.2687 42.46V40.2782H34.73V42.0797H35.6654V42.46H34.2687ZM36.4026 42.46H35.9083L36.6615 40.2782H37.2559L38.0081 42.46H37.5138L36.9672 40.7768H36.9502L36.4026 42.46ZM36.3717 41.6024H37.5393V41.9625H36.3717V41.6024ZM31.1827 46.46V46.1276L31.9593 45.4085C32.0254 45.3446 32.0808 45.2871 32.1255 45.2359C32.171 45.1848 32.2054 45.1347 32.2289 45.0857C32.2523 45.036 32.264 44.9824 32.264 44.9248C32.264 44.8609 32.2495 44.8059 32.2203 44.7597C32.1912 44.7128 32.1515 44.677 32.101 44.6521C32.0506 44.6265 31.9934 44.6138 31.9295 44.6138C31.8627 44.6138 31.8045 44.6273 31.7548 44.6542C31.7051 44.6812 31.6667 44.7199 31.6397 44.7704C31.6127 44.8208 31.5993 44.8808 31.5993 44.9504H31.1614C31.1614 44.8077 31.1937 44.6837 31.2583 44.5786C31.323 44.4735 31.4135 44.3922 31.53 44.3346C31.6465 44.2771 31.7807 44.2484 31.9327 44.2484C32.089 44.2484 32.225 44.2761 32.3407 44.3314C32.4572 44.3861 32.5478 44.4621 32.6124 44.5594C32.677 44.6567 32.7093 44.7682 32.7093 44.8939C32.7093 44.9763 32.693 45.0577 32.6603 45.1379C32.6284 45.2182 32.5712 45.3073 32.4888 45.4053C32.4064 45.5026 32.2903 45.6194 32.1404 45.7558L31.8219 46.068V46.0829H32.7381V46.46H31.1827ZM33.9278 46.5079C33.7446 46.5072 33.5869 46.4621 33.4548 46.3726C33.3234 46.2832 33.2222 46.1535 33.1512 45.9838C33.0809 45.814 33.0461 45.6099 33.0468 45.3712C33.0468 45.1333 33.0819 44.9305 33.1523 44.7629C33.2233 44.5953 33.3245 44.4678 33.4559 44.3805C33.588 44.2924 33.7453 44.2484 33.9278 44.2484C34.1104 44.2484 34.2673 44.2924 34.3987 44.3805C34.5308 44.4685 34.6324 44.5964 34.7034 44.764C34.7744 44.9309 34.8096 45.1333 34.8089 45.3712C34.8089 45.6106 34.7733 45.8151 34.7023 45.9849C34.632 46.1546 34.5312 46.2842 34.3998 46.3737C34.2684 46.4632 34.1111 46.5079 33.9278 46.5079ZM33.9278 46.1255C34.0528 46.1255 34.1526 46.0626 34.2272 45.9369C34.3018 45.8112 34.3387 45.6226 34.338 45.3712C34.338 45.2057 34.3209 45.068 34.2868 44.9579C34.2535 44.8478 34.2059 44.765 34.1441 44.7096C34.083 44.6542 34.0109 44.6265 33.9278 44.6265C33.8035 44.6265 33.7041 44.6887 33.6295 44.813C33.555 44.9373 33.5173 45.1234 33.5166 45.3712C33.5166 45.5388 33.5333 45.6787 33.5667 45.791C33.6008 45.9025 33.6487 45.9863 33.7105 46.0424C33.7723 46.0978 33.8447 46.1255 33.9278 46.1255ZM35.1048 46.0765V45.7132L36.0156 44.2782H36.3288V44.781H36.1435L35.5692 45.6898V45.7068H36.8636V46.0765H35.1048ZM36.152 46.46V45.9657L36.1605 45.8048V44.2782H36.593V46.46H36.152Z" fill="#303030"/>
<circle cx="20.5" cy="72.5" r="2.5" fill="black" fill-opacity="0.2"/>
<circle cx="19.5" cy="71.5" r="2.5" fill="#DCDCDC"/>
<rect x="91" y="20" width="54" height="96.46" fill="#3F6528"/>
<rect x="97.1132" y="26.46" width="41.7736" height="90" fill="#547E39"/>
<path d="M139 113.46H97C114.6 113.46 139 81.46 139 49.46V113.46Z" fill="black" fill-opacity="0.1"/>
<rect x="86" y="113.46" width="64" height="3" fill="#223616"/>
<path d="M109.8 38.46H127.8V50.46H123.8H118.8H109.8V38.46Z" fill="black" fill-opacity="0.15"/>
<path d="M109 37.46H127V49.46H123H118H109V37.46Z" fill="#E0CAA3"/>
<path d="M115.292 40.9057C115.284 40.8197 115.247 40.753 115.182 40.7054C115.118 40.6578 115.03 40.634 114.919 40.634C114.844 40.634 114.78 40.6447 114.729 40.666C114.677 40.6866 114.637 40.7153 114.609 40.7523C114.582 40.7892 114.569 40.8311 114.569 40.878C114.567 40.917 114.576 40.9511 114.593 40.9802C114.612 41.0094 114.637 41.0346 114.669 41.0559C114.701 41.0765 114.738 41.0946 114.78 41.1102C114.822 41.1251 114.866 41.1379 114.914 41.1486L115.11 41.1954C115.205 41.2167 115.293 41.2452 115.372 41.2807C115.452 41.3162 115.521 41.3599 115.579 41.4117C115.637 41.4636 115.682 41.5246 115.714 41.5949C115.747 41.6653 115.763 41.7459 115.764 41.8368C115.763 41.9703 115.729 42.0861 115.662 42.1841C115.595 42.2814 115.498 42.357 115.372 42.411C115.246 42.4643 115.095 42.4909 114.917 42.4909C114.741 42.4909 114.588 42.4639 114.457 42.4099C114.327 42.356 114.225 42.2761 114.152 42.1702C114.08 42.0637 114.042 41.9319 114.038 41.775H114.485C114.49 41.8481 114.511 41.9092 114.547 41.9582C114.585 42.0065 114.635 42.0431 114.698 42.068C114.761 42.0921 114.832 42.1042 114.912 42.1042C114.99 42.1042 115.058 42.0928 115.115 42.0701C115.174 42.0474 115.219 42.0158 115.251 41.9753C115.283 41.9348 115.299 41.8883 115.299 41.8357C115.299 41.7867 115.284 41.7455 115.255 41.7121C115.226 41.6787 115.185 41.6503 115.129 41.6269C115.074 41.6035 115.007 41.5822 114.928 41.563L114.69 41.5033C114.506 41.4586 114.361 41.3886 114.255 41.2935C114.148 41.1983 114.095 41.0701 114.096 40.9089C114.095 40.7768 114.13 40.6613 114.201 40.5626C114.273 40.4639 114.371 40.3868 114.496 40.3314C114.621 40.2761 114.763 40.2484 114.922 40.2484C115.084 40.2484 115.226 40.2761 115.347 40.3314C115.468 40.3868 115.562 40.4639 115.63 40.5626C115.697 40.6613 115.732 40.7757 115.734 40.9057H115.292ZM116.401 42.46H115.906L116.66 40.2782H117.254L118.006 42.46H117.512L116.965 40.7768H116.948L116.401 42.46ZM116.37 41.6024H117.537V41.9625H116.37V41.6024ZM118.269 42.46V40.2782H118.73V42.0797H119.665V42.46H118.269ZM120.403 42.46H119.908L120.661 40.2782H121.256L122.008 42.46H121.514L120.967 40.7768H120.95L120.403 42.46ZM120.372 41.6024H121.539V41.9625H120.372V41.6024ZM115.062 46.0765V45.7132L115.973 44.2782H116.286V44.781H116.1L115.526 45.6898V45.7068H116.821V46.0765H115.062ZM116.109 46.46V45.9657L116.118 45.8048V44.2782H116.55V46.46H116.109ZM117.983 46.5079C117.8 46.5072 117.643 46.4621 117.51 46.3726C117.379 46.2832 117.278 46.1535 117.207 45.9838C117.137 45.814 117.102 45.6099 117.102 45.3712C117.102 45.1333 117.138 44.9305 117.208 44.7629C117.279 44.5953 117.38 44.4678 117.512 44.3805C117.644 44.2924 117.801 44.2484 117.983 44.2484C118.166 44.2484 118.323 44.2924 118.454 44.3805C118.586 44.4685 118.688 44.5964 118.759 44.764C118.83 44.9309 118.865 45.1333 118.865 45.3712C118.865 45.6106 118.829 45.8151 118.758 45.9849C118.688 46.1546 118.587 46.2842 118.455 46.3737C118.324 46.4632 118.167 46.5079 117.983 46.5079ZM117.983 46.1255C118.108 46.1255 118.208 46.0626 118.283 45.9369C118.357 45.8112 118.394 45.6226 118.394 45.3712C118.394 45.2057 118.377 45.068 118.343 44.9579C118.309 44.8478 118.262 44.765 118.2 44.7096C118.139 44.6542 118.067 44.6265 117.983 44.6265C117.859 44.6265 117.76 44.6887 117.685 44.813C117.611 44.9373 117.573 45.1234 117.572 45.3712C117.572 45.5388 117.589 45.6787 117.622 45.791C117.656 45.9025 117.704 45.9863 117.766 46.0424C117.828 46.0978 117.9 46.1255 117.983 46.1255ZM120.049 46.5079C119.866 46.5072 119.708 46.4621 119.576 46.3726C119.445 46.2832 119.343 46.1535 119.272 45.9838C119.202 45.814 119.167 45.6099 119.168 45.3712C119.168 45.1333 119.203 44.9305 119.273 44.7629C119.344 44.5953 119.446 44.4678 119.577 44.3805C119.709 44.2924 119.866 44.2484 120.049 44.2484C120.231 44.2484 120.388 44.2924 120.52 44.3805C120.652 44.4685 120.753 44.5964 120.824 44.764C120.896 44.9309 120.931 45.1333 120.93 45.3712C120.93 45.6106 120.894 45.8151 120.823 45.9849C120.753 46.1546 120.652 46.2842 120.521 46.3737C120.389 46.4632 120.232 46.5079 120.049 46.5079ZM120.049 46.1255C120.174 46.1255 120.274 46.0626 120.348 45.9369C120.423 45.8112 120.46 45.6226 120.459 45.3712C120.459 45.2057 120.442 45.068 120.408 44.9579C120.375 44.8478 120.327 44.765 120.265 44.7096C120.204 44.6542 120.132 44.6265 120.049 44.6265C119.925 44.6265 119.825 44.6887 119.751 44.813C119.676 44.9373 119.638 45.1234 119.638 45.3712C119.638 45.5388 119.654 45.6787 119.688 45.791C119.722 45.9025 119.77 45.9863 119.832 46.0424C119.893 46.0978 119.966 46.1255 120.049 46.1255Z" fill="#303030"/>
<circle cx="104.5" cy="72.5" r="2.5" fill="black" fill-opacity="0.2"/>
<circle cx="103.5" cy="71.5" r="2.5" fill="#DCDCDC"/>
<rect x="175" y="20" width="54" height="96.46" fill="#3F6528"/>
<rect x="181.113" y="26.46" width="41.7736" height="90" fill="#547E39"/>
<path d="M223 113.46H181C198.6 113.46 223 81.46 223 49.46V113.46Z" fill="black" fill-opacity="0.1"/>
<rect x="170" y="113.46" width="64" height="3" fill="#223616"/>
<path d="M193.8 38.46H211.8V50.46H207.8H202.8H193.8V38.46Z" fill="black" fill-opacity="0.15"/>
<path d="M193 37.46H211V49.46H207H202H193V37.46Z" fill="#E0CAA3"/>
<path d="M199.292 40.9057C199.284 40.8197 199.247 40.753 199.182 40.7054C199.118 40.6578 199.03 40.634 198.919 40.634C198.844 40.634 198.78 40.6447 198.729 40.666C198.677 40.6866 198.637 40.7153 198.609 40.7523C198.582 40.7892 198.569 40.8311 198.569 40.878C198.567 40.917 198.576 40.9511 198.593 40.9802C198.612 41.0094 198.637 41.0346 198.669 41.0559C198.701 41.0765 198.738 41.0946 198.78 41.1102C198.822 41.1251 198.866 41.1379 198.914 41.1486L199.11 41.1954C199.205 41.2167 199.293 41.2452 199.372 41.2807C199.452 41.3162 199.521 41.3599 199.579 41.4117C199.637 41.4636 199.682 41.5246 199.714 41.5949C199.747 41.6653 199.763 41.7459 199.764 41.8368C199.763 41.9703 199.729 42.0861 199.662 42.1841C199.595 42.2814 199.498 42.357 199.372 42.411C199.246 42.4643 199.095 42.4909 198.917 42.4909C198.741 42.4909 198.588 42.4639 198.457 42.4099C198.327 42.356 198.225 42.2761 198.152 42.1702C198.08 42.0637 198.042 41.9319 198.038 41.775H198.485C198.49 41.8481 198.511 41.9092 198.547 41.9582C198.585 42.0065 198.635 42.0431 198.698 42.068C198.761 42.0921 198.832 42.1042 198.912 42.1042C198.99 42.1042 199.058 42.0928 199.115 42.0701C199.174 42.0474 199.219 42.0158 199.251 41.9753C199.283 41.9348 199.299 41.8883 199.299 41.8357C199.299 41.7867 199.284 41.7455 199.255 41.7121C199.226 41.6787 199.185 41.6503 199.129 41.6269C199.074 41.6035 199.007 41.5822 198.928 41.563L198.69 41.5033C198.506 41.4586 198.361 41.3886 198.255 41.2935C198.148 41.1983 198.095 41.0701 198.096 40.9089C198.095 40.7768 198.13 40.6613 198.201 40.5626C198.273 40.4639 198.371 40.3868 198.496 40.3314C198.621 40.2761 198.763 40.2484 198.922 40.2484C199.084 40.2484 199.226 40.2761 199.347 40.3314C199.468 40.3868 199.562 40.4639 199.63 40.5626C199.697 40.6613 199.732 40.7757 199.734 40.9057H199.292ZM200.401 42.46H199.906L200.66 40.2782H201.254L202.006 42.46H201.512L200.965 40.7768H200.948L200.401 42.46ZM200.37 41.6024H201.537V41.9625H200.37V41.6024ZM202.269 42.46V40.2782H202.73V42.0797H203.665V42.46H202.269ZM204.403 42.46H203.908L204.661 40.2782H205.256L206.008 42.46H205.514L204.967 40.7768H204.95L204.403 42.46ZM204.372 41.6024H205.539V41.9625H204.372V41.6024ZM199.078 46.0765V45.7132L199.989 44.2782H200.302V44.781H200.117L199.542 45.6898V45.7068H200.837V46.0765H199.078ZM200.125 46.46V45.9657L200.134 45.8048V44.2782H200.566V46.46H200.125ZM202 46.5079C201.816 46.5072 201.659 46.4621 201.527 46.3726C201.395 46.2832 201.294 46.1535 201.223 45.9838C201.153 45.814 201.118 45.6099 201.119 45.3712C201.119 45.1333 201.154 44.9305 201.224 44.7629C201.295 44.5953 201.396 44.4678 201.528 44.3805C201.66 44.2924 201.817 44.2484 202 44.2484C202.182 44.2484 202.339 44.2924 202.47 44.3805C202.603 44.4685 202.704 44.5964 202.775 44.764C202.846 44.9309 202.881 45.1333 202.881 45.3712C202.881 45.6106 202.845 45.8151 202.774 45.9849C202.704 46.1546 202.603 46.2842 202.472 46.3737C202.34 46.4632 202.183 46.5079 202 46.5079ZM202 46.1255C202.125 46.1255 202.224 46.0626 202.299 45.9369C202.374 45.8112 202.41 45.6226 202.41 45.3712C202.41 45.2057 202.393 45.068 202.359 44.9579C202.325 44.8478 202.278 44.765 202.216 44.7096C202.155 44.6542 202.083 44.6265 202 44.6265C201.875 44.6265 201.776 44.6887 201.701 44.813C201.627 44.9373 201.589 45.1234 201.588 45.3712C201.588 45.5388 201.605 45.6787 201.638 45.791C201.673 45.9025 201.72 45.9863 201.782 46.0424C201.844 46.0978 201.917 46.1255 202 46.1255ZM203.177 46.0765V45.7132L204.087 44.2782H204.401V44.781H204.215L203.641 45.6898V45.7068H204.935V46.0765H203.177ZM204.224 46.46V45.9657L204.232 45.8048V44.2782H204.665V46.46H204.224Z" fill="#303030"/>
<circle cx="188.5" cy="72.5" r="2.5" fill="black" fill-opacity="0.2"/>
<circle cx="187.5" cy="71.5" r="2.5" fill="#DCDCDC"/>
<path d="M320 127L265 120.5L270 117L320 116V127Z" fill="black" fill-opacity="0.15"/>
<rect x="259" y="20" width="54" height="96.46" fill="#3F6528"/>
<rect x="254" y="113.46" width="64" height="3" fill="#223616"/>
<rect x="264.113" y="24.46" width="41.7736" height="90" fill="#373737"/>
<path d="M259 127L265 120.5L306 24.5L264 24.5L197.5 116L170.5 127L259 127Z" fill="#FFEF61" fill-opacity="0.2"/>
<path d="M264 32L306 24.5333V112.033L265 120.5L264 119.5V32Z" fill="#355224"/>
<rect width="42" height="87.5" transform="matrix(0.984563 -0.175033 0 1 265 33)" fill="#52743B"/>
<path d="M277.602 43.2196L295.325 40.069V52.069L291.386 52.7691L286.463 53.6443L277.602 55.2196V43.2196Z" fill="black" fill-opacity="0.15"/>
<path d="M276.815 42.3596L294.537 39.209V51.209L290.599 51.9091L285.676 52.7843L276.815 54.3596V42.3596Z" fill="#E0CAA3"/>
<path d="M283.01 44.7039C283.001 44.6195 282.965 44.5591 282.902 44.5229C282.838 44.4866 282.752 44.4781 282.643 44.4975C282.569 44.5107 282.506 44.5325 282.455 44.5629C282.404 44.5925 282.365 44.6283 282.337 44.67C282.311 44.7117 282.298 44.756 282.298 44.8028C282.296 44.8422 282.304 44.8748 282.322 44.9008C282.34 44.9267 282.365 44.9475 282.396 44.9632C282.428 44.9782 282.464 44.9899 282.505 44.9982C282.547 45.0057 282.591 45.0107 282.637 45.013L282.83 45.0256C282.924 45.0302 283.01 45.0434 283.088 45.0649C283.167 45.0865 283.235 45.1182 283.292 45.1598C283.349 45.2015 283.394 45.2546 283.425 45.3194C283.457 45.384 283.474 45.4616 283.474 45.5524C283.474 45.6861 283.44 45.8078 283.374 45.9176C283.308 46.0266 283.213 46.1192 283.088 46.1953C282.965 46.2705 282.815 46.3237 282.641 46.3548C282.467 46.3856 282.316 46.3855 282.187 46.3544C282.059 46.3232 281.959 46.261 281.887 46.168C281.816 46.0742 281.779 45.9491 281.775 45.7927L282.215 45.7146C282.22 45.7869 282.24 45.8443 282.277 45.8868C282.314 45.9285 282.363 45.9563 282.424 45.9703C282.487 45.9834 282.557 45.9829 282.635 45.969C282.712 45.9553 282.779 45.9321 282.836 45.8993C282.893 45.8664 282.937 45.8269 282.969 45.7808C283 45.7347 283.016 45.6854 283.016 45.6329C283.016 45.5838 283.002 45.5452 282.973 45.5169C282.945 45.4885 282.904 45.4674 282.849 45.4537C282.795 45.4398 282.729 45.4303 282.651 45.425L282.417 45.4069C282.236 45.3944 282.093 45.3499 281.988 45.2733C281.883 45.1968 281.831 45.0779 281.832 44.9165C281.831 44.7846 281.866 44.663 281.936 44.5518C282.006 44.4406 282.103 44.3463 282.226 44.269C282.349 44.1917 282.489 44.1392 282.646 44.1113C282.805 44.083 282.944 44.0859 283.063 44.1202C283.183 44.1543 283.276 44.2149 283.342 44.3018C283.409 44.3887 283.443 44.4969 283.445 44.6265L283.01 44.7039ZM284.101 46.0642L283.614 46.1508L284.356 43.8371L284.941 43.7331L285.682 45.7832L285.195 45.8698L284.657 44.2822L284.64 44.2852L284.101 46.0642ZM284.071 45.212L285.22 45.0077V45.3678L284.071 45.5721V45.212ZM285.94 45.7373V43.5554L286.395 43.4747V45.2762L287.315 45.1125V45.4928L285.94 45.7373ZM288.041 45.3638L287.555 45.4503L288.296 43.1366L288.881 43.0326L289.622 45.0828L289.135 45.1693L288.597 43.5817L288.58 43.5847L288.041 45.3638ZM288.011 44.5116L289.16 44.3072V44.6673L288.011 44.8717V44.5116ZM283.649 50.1744C283.501 50.2008 283.369 50.1966 283.253 50.1618C283.137 50.1269 283.046 50.0669 282.978 49.9816C282.91 49.8964 282.875 49.7912 282.872 49.666L283.312 49.5876C283.317 49.6713 283.352 49.7336 283.417 49.7746C283.482 49.8156 283.56 49.8281 283.649 49.8122C283.72 49.7995 283.783 49.7724 283.838 49.7307C283.893 49.6882 283.936 49.6355 283.967 49.5725C283.998 49.5087 284.014 49.4391 284.014 49.3638C284.014 49.2871 283.998 49.2225 283.966 49.17C283.934 49.1173 283.891 49.0796 283.835 49.0569C283.779 49.0342 283.715 49.0289 283.643 49.041C283.58 49.0522 283.519 49.0762 283.459 49.113C283.4 49.1497 283.355 49.1937 283.322 49.245L282.918 49.2433L283.02 48.0747L284.333 47.8412V48.2183L283.394 48.3852L283.339 48.9416L283.351 48.9394C283.389 48.8787 283.446 48.8238 283.522 48.7748C283.598 48.7257 283.684 48.6928 283.778 48.676C283.907 48.653 284.023 48.6634 284.124 48.7072C284.226 48.7509 284.306 48.8216 284.364 48.9191C284.423 49.0159 284.452 49.1343 284.451 49.2743C284.452 49.4212 284.419 49.5579 284.351 49.6843C284.284 49.8098 284.19 49.9161 284.069 50.0029C283.948 50.0889 283.809 50.1461 283.649 50.1744ZM285.611 49.8439C285.43 49.8752 285.275 49.8577 285.145 49.7913C285.015 49.7249 284.916 49.613 284.846 49.4556C284.777 49.2982 284.742 49.1001 284.743 48.8613C284.743 48.6234 284.778 48.4145 284.847 48.2346C284.917 48.0545 285.016 47.9093 285.146 47.799C285.276 47.6878 285.431 47.6162 285.611 47.5843C285.79 47.5523 285.945 47.5689 286.074 47.6339C286.204 47.6989 286.304 47.809 286.374 47.9641C286.444 48.1186 286.479 48.3149 286.478 48.5529C286.478 48.7923 286.443 49.003 286.373 49.1852C286.304 49.3673 286.205 49.5145 286.075 49.627C285.946 49.7395 285.791 49.8118 285.611 49.8439ZM285.611 49.4614C285.734 49.4395 285.832 49.3592 285.905 49.2204C285.979 49.0817 286.015 48.8866 286.014 48.6353C286.014 48.4699 285.998 48.3351 285.964 48.2309C285.931 48.1267 285.884 48.0523 285.823 48.0077C285.763 47.963 285.692 47.9479 285.611 47.9625C285.488 47.9842 285.39 48.0638 285.317 48.2011C285.243 48.3384 285.206 48.5311 285.206 48.7791C285.206 48.9467 285.222 49.0837 285.255 49.1901C285.288 49.2956 285.336 49.371 285.397 49.4163C285.457 49.4609 285.529 49.4759 285.611 49.4614ZM287.644 49.4823C287.464 49.5137 287.308 49.4962 287.178 49.4298C287.049 49.3633 286.949 49.2514 286.879 49.0941C286.81 48.9367 286.776 48.7386 286.777 48.4998C286.777 48.2619 286.811 48.053 286.88 47.8731C286.95 47.693 287.05 47.5478 287.179 47.4375C287.309 47.3263 287.464 47.2547 287.644 47.2227C287.824 47.1908 287.978 47.2074 288.108 47.2724C288.238 47.3374 288.338 47.4474 288.408 47.6026C288.478 47.7571 288.512 47.9534 288.511 48.1914C288.511 48.4307 288.477 48.6415 288.407 48.8237C288.337 49.0057 288.238 49.153 288.109 49.2655C287.979 49.378 287.824 49.4503 287.644 49.4823ZM287.644 49.0999C287.767 49.078 287.865 48.9977 287.939 48.8589C288.012 48.7201 288.049 48.5251 288.048 48.2738C288.048 48.1083 288.031 47.9735 287.998 47.8694C287.965 47.7652 287.918 47.6908 287.857 47.6462C287.797 47.6015 287.726 47.5864 287.644 47.6009C287.522 47.6227 287.424 47.7022 287.35 47.8396C287.277 47.9769 287.24 48.1696 287.239 48.4176C287.239 48.5852 287.256 48.7222 287.288 48.8286C287.322 48.9341 287.369 49.0095 287.43 49.0548C287.491 49.0994 287.562 49.1144 287.644 49.0999Z" fill="#303030"/>
<path d="M306.352 113.109L265 120.46C282.328 117.379 306.352 81.1086 306.352 49.1086V113.109Z" fill="black" fill-opacity="0.1"/>
<circle cx="273.438" cy="78.7999" r="2.5" fill="black" fill-opacity="0.2"/>
<circle cx="271.438" cy="77.7999" r="2.5" fill="#DCDCDC"/>
<rect y="116" width="320" height="28" fill="#949494"/>
</svg>
