<svg width="320" height="148" viewBox="0 0 320 148" fill="none" xmlns="http://www.w3.org/2000/svg">
<rect y="117" width="320" height="31" fill="#949494"/>
<rect x="7" y="21" width="54" height="96.46" fill="#3F6528"/>
<rect x="13.1132" y="27.46" width="41.7736" height="90" fill="#547E39"/>
<path d="M55 114.46H13C30.6 114.46 55 82.46 55 50.46V114.46Z" fill="black" fill-opacity="0.1"/>
<rect x="2" y="114.46" width="64" height="3" fill="#223616"/>
<path d="M25.8 39.46H43.8V51.46H39.8H34.8H25.8V39.46Z" fill="black" fill-opacity="0.15"/>
<path d="M25 38.46H43V50.46H39H34H25V38.46Z" fill="#E0CAA3"/>
<path d="M31.2922 41.9057C31.2836 41.8197 31.2471 41.753 31.1824 41.7054C31.1178 41.6578 31.0301 41.634 30.9193 41.634C30.844 41.634 30.7805 41.6447 30.7286 41.666C30.6768 41.6866 30.637 41.7153 30.6093 41.7523C30.5823 41.7892 30.5688 41.8311 30.5688 41.878C30.5674 41.917 30.5756 41.9511 30.5933 41.9802C30.6118 42.0094 30.637 42.0346 30.6689 42.0559C30.7009 42.0765 30.7378 42.0946 30.7797 42.1102C30.8216 42.1251 30.8664 42.1379 30.914 42.1486L31.11 42.1954C31.2052 42.2167 31.2925 42.2452 31.3721 42.2807C31.4516 42.3162 31.5205 42.3599 31.5787 42.4117C31.637 42.4636 31.6821 42.5246 31.714 42.5949C31.7467 42.6653 31.7634 42.7459 31.7641 42.8368C31.7634 42.9703 31.7293 43.0861 31.6618 43.1841C31.5951 43.2814 31.4985 43.357 31.3721 43.411C31.2464 43.4643 31.0947 43.4909 30.9172 43.4909C30.741 43.4909 30.5876 43.4639 30.4569 43.4099C30.327 43.356 30.2254 43.2761 30.1523 43.1702C30.0798 43.0637 30.0418 42.9319 30.0383 42.775H30.4846C30.4896 42.8481 30.5106 42.9092 30.5475 42.9582C30.5851 43.0065 30.6352 43.0431 30.6977 43.068C30.7609 43.0921 30.8323 43.1042 30.9118 43.1042C30.99 43.1042 31.0578 43.0928 31.1153 43.0701C31.1736 43.0474 31.2187 43.0158 31.2506 42.9753C31.2826 42.9348 31.2986 42.8883 31.2986 42.8357C31.2986 42.7867 31.284 42.7455 31.2549 42.7121C31.2265 42.6787 31.1846 42.6503 31.1292 42.6269C31.0745 42.6035 31.0074 42.5822 30.9278 42.563L30.6903 42.5033C30.5063 42.4586 30.3611 42.3886 30.2545 42.2935C30.148 42.1983 30.0951 42.0701 30.0958 41.9089C30.0951 41.7768 30.1302 41.6613 30.2013 41.5626C30.273 41.4639 30.3714 41.3868 30.4964 41.3314C30.6214 41.2761 30.7634 41.2484 30.9225 41.2484C31.0844 41.2484 31.2258 41.2761 31.3465 41.3314C31.468 41.3868 31.5624 41.4639 31.6299 41.5626C31.6974 41.6613 31.7322 41.7757 31.7343 41.9057H31.2922ZM32.4007 43.46H31.9063L32.6595 41.2782H33.254L34.0061 43.46H33.5118L32.9653 41.7768H32.9482L32.4007 43.46ZM32.3698 42.6024H33.5374V42.9625H32.3698V42.6024ZM34.2687 43.46V41.2782H34.73V43.0797H35.6654V43.46H34.2687ZM36.4026 43.46H35.9083L36.6615 41.2782H37.2559L38.0081 43.46H37.5138L36.9672 41.7768H36.9502L36.4026 43.46ZM36.3717 42.6024H37.5393V42.9625H36.3717V42.6024ZM31.1827 47.46V47.1276L31.9593 46.4085C32.0254 46.3446 32.0808 46.2871 32.1255 46.2359C32.171 46.1848 32.2054 46.1347 32.2289 46.0857C32.2523 46.036 32.264 45.9824 32.264 45.9248C32.264 45.8609 32.2495 45.8059 32.2203 45.7597C32.1912 45.7128 32.1515 45.677 32.101 45.6521C32.0506 45.6265 31.9934 45.6138 31.9295 45.6138C31.8627 45.6138 31.8045 45.6273 31.7548 45.6542C31.7051 45.6812 31.6667 45.7199 31.6397 45.7704C31.6127 45.8208 31.5993 45.8808 31.5993 45.9504H31.1614C31.1614 45.8077 31.1937 45.6837 31.2583 45.5786C31.323 45.4735 31.4135 45.3922 31.53 45.3346C31.6465 45.2771 31.7807 45.2484 31.9327 45.2484C32.089 45.2484 32.225 45.2761 32.3407 45.3314C32.4572 45.3861 32.5478 45.4621 32.6124 45.5594C32.677 45.6567 32.7093 45.7682 32.7093 45.8939C32.7093 45.9763 32.693 46.0577 32.6603 46.1379C32.6284 46.2182 32.5712 46.3073 32.4888 46.4053C32.4064 46.5026 32.2903 46.6194 32.1404 46.7558L31.8219 47.068V47.0829H32.7381V47.46H31.1827ZM33.9278 47.5079C33.7446 47.5072 33.5869 47.4621 33.4548 47.3726C33.3234 47.2832 33.2222 47.1535 33.1512 46.9838C33.0809 46.814 33.0461 46.6099 33.0468 46.3712C33.0468 46.1333 33.0819 45.9305 33.1523 45.7629C33.2233 45.5953 33.3245 45.4678 33.4559 45.3805C33.588 45.2924 33.7453 45.2484 33.9278 45.2484C34.1104 45.2484 34.2673 45.2924 34.3987 45.3805C34.5308 45.4685 34.6324 45.5964 34.7034 45.764C34.7744 45.9309 34.8096 46.1333 34.8089 46.3712C34.8089 46.6106 34.7733 46.8151 34.7023 46.9849C34.632 47.1546 34.5312 47.2842 34.3998 47.3737C34.2684 47.4632 34.1111 47.5079 33.9278 47.5079ZM33.9278 47.1255C34.0528 47.1255 34.1526 47.0626 34.2272 46.9369C34.3018 46.8112 34.3387 46.6226 34.338 46.3712C34.338 46.2057 34.3209 46.068 34.2868 45.9579C34.2535 45.8478 34.2059 45.765 34.1441 45.7096C34.083 45.6542 34.0109 45.6265 33.9278 45.6265C33.8035 45.6265 33.7041 45.6887 33.6295 45.813C33.555 45.9373 33.5173 46.1234 33.5166 46.3712C33.5166 46.5388 33.5333 46.6787 33.5667 46.791C33.6008 46.9025 33.6487 46.9863 33.7105 47.0424C33.7723 47.0978 33.8447 47.1255 33.9278 47.1255ZM35.1048 47.0765V46.7132L36.0156 45.2782H36.3288V45.781H36.1435L35.5692 46.6898V46.7068H36.8636V47.0765H35.1048ZM36.152 47.46V46.9657L36.1605 46.8048V45.2782H36.593V47.46H36.152Z" fill="#303030"/>
<circle cx="20.5" cy="73.5" r="2.5" fill="black" fill-opacity="0.2"/>
<circle cx="19.5" cy="72.5" r="2.5" fill="#DCDCDC"/>
<rect x="91" y="21" width="54" height="96.46" fill="#3F6528"/>
<rect x="97.1132" y="27.46" width="41.7736" height="90" fill="#547E39"/>
<path d="M139 114.46H97C114.6 114.46 139 82.46 139 50.46V114.46Z" fill="black" fill-opacity="0.1"/>
<rect x="86" y="114.46" width="64" height="3" fill="#223616"/>
<path d="M109.8 39.46H127.8V51.46H123.8H118.8H109.8V39.46Z" fill="black" fill-opacity="0.15"/>
<path d="M109 38.46H127V50.46H123H118H109V38.46Z" fill="#E0CAA3"/>
<path d="M115.292 41.9057C115.284 41.8197 115.247 41.753 115.182 41.7054C115.118 41.6578 115.03 41.634 114.919 41.634C114.844 41.634 114.78 41.6447 114.729 41.666C114.677 41.6866 114.637 41.7153 114.609 41.7523C114.582 41.7892 114.569 41.8311 114.569 41.878C114.567 41.917 114.576 41.9511 114.593 41.9802C114.612 42.0094 114.637 42.0346 114.669 42.0559C114.701 42.0765 114.738 42.0946 114.78 42.1102C114.822 42.1251 114.866 42.1379 114.914 42.1486L115.11 42.1954C115.205 42.2167 115.293 42.2452 115.372 42.2807C115.452 42.3162 115.521 42.3599 115.579 42.4117C115.637 42.4636 115.682 42.5246 115.714 42.5949C115.747 42.6653 115.763 42.7459 115.764 42.8368C115.763 42.9703 115.729 43.0861 115.662 43.1841C115.595 43.2814 115.498 43.357 115.372 43.411C115.246 43.4643 115.095 43.4909 114.917 43.4909C114.741 43.4909 114.588 43.4639 114.457 43.4099C114.327 43.356 114.225 43.2761 114.152 43.1702C114.08 43.0637 114.042 42.9319 114.038 42.775H114.485C114.49 42.8481 114.511 42.9092 114.547 42.9582C114.585 43.0065 114.635 43.0431 114.698 43.068C114.761 43.0921 114.832 43.1042 114.912 43.1042C114.99 43.1042 115.058 43.0928 115.115 43.0701C115.174 43.0474 115.219 43.0158 115.251 42.9753C115.283 42.9348 115.299 42.8883 115.299 42.8357C115.299 42.7867 115.284 42.7455 115.255 42.7121C115.226 42.6787 115.185 42.6503 115.129 42.6269C115.074 42.6035 115.007 42.5822 114.928 42.563L114.69 42.5033C114.506 42.4586 114.361 42.3886 114.255 42.2935C114.148 42.1983 114.095 42.0701 114.096 41.9089C114.095 41.7768 114.13 41.6613 114.201 41.5626C114.273 41.4639 114.371 41.3868 114.496 41.3314C114.621 41.2761 114.763 41.2484 114.922 41.2484C115.084 41.2484 115.226 41.2761 115.347 41.3314C115.468 41.3868 115.562 41.4639 115.63 41.5626C115.697 41.6613 115.732 41.7757 115.734 41.9057H115.292ZM116.401 43.46H115.906L116.66 41.2782H117.254L118.006 43.46H117.512L116.965 41.7768H116.948L116.401 43.46ZM116.37 42.6024H117.537V42.9625H116.37V42.6024ZM118.269 43.46V41.2782H118.73V43.0797H119.665V43.46H118.269ZM120.403 43.46H119.908L120.661 41.2782H121.256L122.008 43.46H121.514L120.967 41.7768H120.95L120.403 43.46ZM120.372 42.6024H121.539V42.9625H120.372V42.6024ZM115.062 47.0765V46.7132L115.973 45.2782H116.286V45.781H116.1L115.526 46.6898V46.7068H116.821V47.0765H115.062ZM116.109 47.46V46.9657L116.118 46.8048V45.2782H116.55V47.46H116.109ZM117.983 47.5079C117.8 47.5072 117.643 47.4621 117.51 47.3726C117.379 47.2832 117.278 47.1535 117.207 46.9838C117.137 46.814 117.102 46.6099 117.102 46.3712C117.102 46.1333 117.138 45.9305 117.208 45.7629C117.279 45.5953 117.38 45.4678 117.512 45.3805C117.644 45.2924 117.801 45.2484 117.983 45.2484C118.166 45.2484 118.323 45.2924 118.454 45.3805C118.586 45.4685 118.688 45.5964 118.759 45.764C118.83 45.9309 118.865 46.1333 118.865 46.3712C118.865 46.6106 118.829 46.8151 118.758 46.9849C118.688 47.1546 118.587 47.2842 118.455 47.3737C118.324 47.4632 118.167 47.5079 117.983 47.5079ZM117.983 47.1255C118.108 47.1255 118.208 47.0626 118.283 46.9369C118.357 46.8112 118.394 46.6226 118.394 46.3712C118.394 46.2057 118.377 46.068 118.343 45.9579C118.309 45.8478 118.262 45.765 118.2 45.7096C118.139 45.6542 118.067 45.6265 117.983 45.6265C117.859 45.6265 117.76 45.6887 117.685 45.813C117.611 45.9373 117.573 46.1234 117.572 46.3712C117.572 46.5388 117.589 46.6787 117.622 46.791C117.656 46.9025 117.704 46.9863 117.766 47.0424C117.828 47.0978 117.9 47.1255 117.983 47.1255ZM120.049 47.5079C119.866 47.5072 119.708 47.4621 119.576 47.3726C119.445 47.2832 119.343 47.1535 119.272 46.9838C119.202 46.814 119.167 46.6099 119.168 46.3712C119.168 46.1333 119.203 45.9305 119.273 45.7629C119.344 45.5953 119.446 45.4678 119.577 45.3805C119.709 45.2924 119.866 45.2484 120.049 45.2484C120.231 45.2484 120.388 45.2924 120.52 45.3805C120.652 45.4685 120.753 45.5964 120.824 45.764C120.896 45.9309 120.931 46.1333 120.93 46.3712C120.93 46.6106 120.894 46.8151 120.823 46.9849C120.753 47.1546 120.652 47.2842 120.521 47.3737C120.389 47.4632 120.232 47.5079 120.049 47.5079ZM120.049 47.1255C120.174 47.1255 120.274 47.0626 120.348 46.9369C120.423 46.8112 120.46 46.6226 120.459 46.3712C120.459 46.2057 120.442 46.068 120.408 45.9579C120.375 45.8478 120.327 45.765 120.265 45.7096C120.204 45.6542 120.132 45.6265 120.049 45.6265C119.925 45.6265 119.825 45.6887 119.751 45.813C119.676 45.9373 119.638 46.1234 119.638 46.3712C119.638 46.5388 119.654 46.6787 119.688 46.791C119.722 46.9025 119.77 46.9863 119.832 47.0424C119.893 47.0978 119.966 47.1255 120.049 47.1255Z" fill="#303030"/>
<circle cx="104.5" cy="73.5" r="2.5" fill="black" fill-opacity="0.2"/>
<circle cx="103.5" cy="72.5" r="2.5" fill="#DCDCDC"/>
<rect x="175" y="21" width="54" height="96.46" fill="#3F6528"/>
<rect x="181.113" y="27.46" width="41.7736" height="90" fill="#547E39"/>
<path d="M223 114.46H181C198.6 114.46 223 82.46 223 50.46V114.46Z" fill="black" fill-opacity="0.1"/>
<rect x="170" y="114.46" width="64" height="3" fill="#223616"/>
<path d="M193.8 39.46H211.8V51.46H207.8H202.8H193.8V39.46Z" fill="black" fill-opacity="0.15"/>
<path d="M193 38.46H211V50.46H207H202H193V38.46Z" fill="#E0CAA3"/>
<path d="M199.292 41.9057C199.284 41.8197 199.247 41.753 199.182 41.7054C199.118 41.6578 199.03 41.634 198.919 41.634C198.844 41.634 198.78 41.6447 198.729 41.666C198.677 41.6866 198.637 41.7153 198.609 41.7523C198.582 41.7892 198.569 41.8311 198.569 41.878C198.567 41.917 198.576 41.9511 198.593 41.9802C198.612 42.0094 198.637 42.0346 198.669 42.0559C198.701 42.0765 198.738 42.0946 198.78 42.1102C198.822 42.1251 198.866 42.1379 198.914 42.1486L199.11 42.1954C199.205 42.2167 199.293 42.2452 199.372 42.2807C199.452 42.3162 199.521 42.3599 199.579 42.4117C199.637 42.4636 199.682 42.5246 199.714 42.5949C199.747 42.6653 199.763 42.7459 199.764 42.8368C199.763 42.9703 199.729 43.0861 199.662 43.1841C199.595 43.2814 199.498 43.357 199.372 43.411C199.246 43.4643 199.095 43.4909 198.917 43.4909C198.741 43.4909 198.588 43.4639 198.457 43.4099C198.327 43.356 198.225 43.2761 198.152 43.1702C198.08 43.0637 198.042 42.9319 198.038 42.775H198.485C198.49 42.8481 198.511 42.9092 198.547 42.9582C198.585 43.0065 198.635 43.0431 198.698 43.068C198.761 43.0921 198.832 43.1042 198.912 43.1042C198.99 43.1042 199.058 43.0928 199.115 43.0701C199.174 43.0474 199.219 43.0158 199.251 42.9753C199.283 42.9348 199.299 42.8883 199.299 42.8357C199.299 42.7867 199.284 42.7455 199.255 42.7121C199.226 42.6787 199.185 42.6503 199.129 42.6269C199.074 42.6035 199.007 42.5822 198.928 42.563L198.69 42.5033C198.506 42.4586 198.361 42.3886 198.255 42.2935C198.148 42.1983 198.095 42.0701 198.096 41.9089C198.095 41.7768 198.13 41.6613 198.201 41.5626C198.273 41.4639 198.371 41.3868 198.496 41.3314C198.621 41.2761 198.763 41.2484 198.922 41.2484C199.084 41.2484 199.226 41.2761 199.347 41.3314C199.468 41.3868 199.562 41.4639 199.63 41.5626C199.697 41.6613 199.732 41.7757 199.734 41.9057H199.292ZM200.401 43.46H199.906L200.66 41.2782H201.254L202.006 43.46H201.512L200.965 41.7768H200.948L200.401 43.46ZM200.37 42.6024H201.537V42.9625H200.37V42.6024ZM202.269 43.46V41.2782H202.73V43.0797H203.665V43.46H202.269ZM204.403 43.46H203.908L204.661 41.2782H205.256L206.008 43.46H205.514L204.967 41.7768H204.95L204.403 43.46ZM204.372 42.6024H205.539V42.9625H204.372V42.6024ZM199.078 47.0765V46.7132L199.989 45.2782H200.302V45.781H200.117L199.542 46.6898V46.7068H200.837V47.0765H199.078ZM200.125 47.46V46.9657L200.134 46.8048V45.2782H200.566V47.46H200.125ZM202 47.5079C201.816 47.5072 201.659 47.4621 201.527 47.3726C201.395 47.2832 201.294 47.1535 201.223 46.9838C201.153 46.814 201.118 46.6099 201.119 46.3712C201.119 46.1333 201.154 45.9305 201.224 45.7629C201.295 45.5953 201.396 45.4678 201.528 45.3805C201.66 45.2924 201.817 45.2484 202 45.2484C202.182 45.2484 202.339 45.2924 202.47 45.3805C202.603 45.4685 202.704 45.5964 202.775 45.764C202.846 45.9309 202.881 46.1333 202.881 46.3712C202.881 46.6106 202.845 46.8151 202.774 46.9849C202.704 47.1546 202.603 47.2842 202.472 47.3737C202.34 47.4632 202.183 47.5079 202 47.5079ZM202 47.1255C202.125 47.1255 202.224 47.0626 202.299 46.9369C202.374 46.8112 202.41 46.6226 202.41 46.3712C202.41 46.2057 202.393 46.068 202.359 45.9579C202.325 45.8478 202.278 45.765 202.216 45.7096C202.155 45.6542 202.083 45.6265 202 45.6265C201.875 45.6265 201.776 45.6887 201.701 45.813C201.627 45.9373 201.589 46.1234 201.588 46.3712C201.588 46.5388 201.605 46.6787 201.638 46.791C201.673 46.9025 201.72 46.9863 201.782 47.0424C201.844 47.0978 201.917 47.1255 202 47.1255ZM203.177 47.0765V46.7132L204.087 45.2782H204.401V45.781H204.215L203.641 46.6898V46.7068H204.935V47.0765H203.177ZM204.224 47.46V46.9657L204.232 46.8048V45.2782H204.665V47.46H204.224Z" fill="#303030"/>
<circle cx="188.5" cy="73.5" r="2.5" fill="black" fill-opacity="0.2"/>
<circle cx="187.5" cy="72.5" r="2.5" fill="#DCDCDC"/>
<path d="M320 128L265 121.5L270 118L320 117V128Z" fill="black" fill-opacity="0.15"/>
<rect x="259" y="21" width="54" height="96.46" fill="#3F6528"/>
<rect x="254" y="114.46" width="64" height="3" fill="#223616"/>
<path d="M253.5 147L265 121.5L306 25.5L264 25.5L197.5 117L74 147L253.5 147Z" fill="#FFEF61" fill-opacity="0.2"/>
<rect x="264.113" y="25.46" width="41.7736" height="90" fill="#373737"/>
<path d="M264 33L306 25.5333V113.033L265 121.5L264 120.5V33Z" fill="#355224"/>
<rect width="42" height="87.5" transform="matrix(0.984563 -0.175033 0 1 265 34)" fill="#52743B"/>
<path d="M277.602 44.2196L295.325 41.069V53.069L291.386 53.7691L286.464 54.6443L277.602 56.2196V44.2196Z" fill="black" fill-opacity="0.15"/>
<path d="M276.815 43.3596L294.537 40.209V52.209L290.599 52.9091L285.676 53.7843L276.815 55.3596V43.3596Z" fill="#E0CAA3"/>
<path d="M283.01 45.7039C283.001 45.6195 282.965 45.5591 282.902 45.5229C282.838 45.4866 282.752 45.4781 282.643 45.4975C282.569 45.5107 282.506 45.5325 282.455 45.5629C282.404 45.5925 282.365 45.6283 282.337 45.67C282.311 45.7117 282.298 45.756 282.298 45.8028C282.296 45.8422 282.304 45.8748 282.322 45.9008C282.34 45.9267 282.365 45.9475 282.396 45.9632C282.428 45.9782 282.464 45.9899 282.505 45.9982C282.547 46.0057 282.591 46.0107 282.637 46.013L282.83 46.0256C282.924 46.0302 283.01 46.0434 283.088 46.0649C283.167 46.0865 283.235 46.1182 283.292 46.1598C283.349 46.2015 283.394 46.2546 283.425 46.3194C283.457 46.384 283.474 46.4616 283.474 46.5524C283.474 46.6861 283.44 46.8078 283.374 46.9176C283.308 47.0266 283.213 47.1192 283.088 47.1953C282.965 47.2705 282.815 47.3237 282.641 47.3548C282.467 47.3856 282.316 47.3855 282.187 47.3544C282.06 47.3232 281.96 47.261 281.888 47.168C281.816 47.0742 281.779 46.9491 281.775 46.7927L282.215 46.7146C282.22 46.7869 282.24 46.8443 282.277 46.8868C282.314 46.9285 282.363 46.9563 282.425 46.9703C282.487 46.9834 282.557 46.9829 282.635 46.969C282.712 46.9553 282.779 46.9321 282.836 46.8993C282.893 46.8664 282.937 46.8269 282.969 46.7808C283 46.7347 283.016 46.6854 283.016 46.6329C283.016 46.5838 283.002 46.5452 282.973 46.5169C282.945 46.4885 282.904 46.4674 282.849 46.4537C282.795 46.4398 282.729 46.4303 282.651 46.425L282.417 46.4069C282.236 46.3944 282.093 46.3499 281.988 46.2733C281.883 46.1968 281.831 46.0779 281.832 45.9165C281.831 45.7846 281.866 45.663 281.936 45.5518C282.006 45.4406 282.103 45.3463 282.226 45.269C282.349 45.1917 282.489 45.1392 282.646 45.1113C282.805 45.083 282.944 45.0859 283.063 45.1202C283.183 45.1543 283.276 45.2149 283.342 45.3018C283.409 45.3887 283.443 45.4969 283.445 45.6265L283.01 45.7039ZM284.101 47.0642L283.615 47.1508L284.356 44.8371L284.941 44.7331L285.682 46.7832L285.195 46.8698L284.657 45.2822L284.64 45.2852L284.101 47.0642ZM284.071 46.212L285.22 46.0077V46.3678L284.071 46.5721V46.212ZM285.94 46.7373V44.5554L286.395 44.4747V46.2762L287.316 46.1125V46.4928L285.94 46.7373ZM288.041 46.3638L287.555 46.4503L288.296 44.1366L288.882 44.0326L289.622 46.0828L289.135 46.1693L288.597 44.5817L288.581 44.5847L288.041 46.3638ZM288.011 45.5116L289.161 45.3072V45.6673L288.011 45.8717V45.5116ZM283.649 51.1744C283.501 51.2008 283.369 51.1966 283.253 51.1618C283.137 51.1269 283.046 51.0669 282.978 50.9816C282.91 50.8964 282.875 50.7912 282.872 50.6659L283.312 50.5876C283.317 50.6713 283.352 50.7336 283.417 50.7746C283.482 50.8156 283.56 50.8281 283.649 50.8122C283.72 50.7995 283.783 50.7724 283.838 50.7307C283.893 50.6882 283.936 50.6355 283.967 50.5725C283.998 50.5086 284.014 50.4391 284.014 50.3638C284.014 50.2871 283.998 50.2225 283.966 50.17C283.934 50.1173 283.891 50.0796 283.835 50.0569C283.779 50.0342 283.715 50.0289 283.643 50.041C283.58 50.0522 283.519 50.0762 283.459 50.113C283.401 50.1497 283.355 50.1937 283.322 50.245L282.918 50.2433L283.02 49.0747L284.333 48.8412V49.2183L283.394 49.3852L283.339 49.9416L283.351 49.9394C283.389 49.8787 283.446 49.8238 283.522 49.7748C283.598 49.7257 283.684 49.6928 283.778 49.676C283.908 49.653 284.023 49.6634 284.124 49.7072C284.226 49.7509 284.306 49.8216 284.364 49.9191C284.423 50.0159 284.452 50.1343 284.452 50.2743C284.452 50.4212 284.419 50.5579 284.351 50.6843C284.284 50.8098 284.19 50.9161 284.069 51.0029C283.948 51.0889 283.809 51.1461 283.649 51.1744ZM285.611 50.8438C285.43 50.8752 285.275 50.8577 285.145 50.7913C285.015 50.7249 284.916 50.613 284.846 50.4556C284.777 50.2982 284.742 50.1001 284.743 49.8613C284.743 49.6234 284.778 49.4145 284.847 49.2346C284.917 49.0545 285.017 48.9093 285.146 48.799C285.276 48.6878 285.431 48.6162 285.611 48.5843C285.79 48.5523 285.945 48.5689 286.074 48.6339C286.204 48.6989 286.304 48.809 286.374 48.9641C286.444 49.1186 286.479 49.3149 286.478 49.5529C286.478 49.7923 286.443 50.003 286.373 50.1852C286.304 50.3673 286.205 50.5145 286.075 50.627C285.946 50.7395 285.791 50.8118 285.611 50.8438ZM285.611 50.4614C285.734 50.4395 285.832 50.3592 285.905 50.2204C285.979 50.0817 286.015 49.8866 286.014 49.6353C286.014 49.4699 285.998 49.3351 285.964 49.2309C285.931 49.1267 285.884 49.0523 285.823 49.0077C285.763 48.963 285.692 48.9479 285.611 48.9625C285.488 48.9842 285.39 49.0638 285.317 49.2011C285.243 49.3384 285.206 49.5311 285.206 49.7791C285.206 49.9467 285.222 50.0837 285.255 50.1901C285.289 50.2956 285.336 50.371 285.397 50.4163C285.457 50.4609 285.529 50.4759 285.611 50.4614ZM287.644 50.4823C287.464 50.5137 287.308 50.4962 287.178 50.4298C287.049 50.3633 286.949 50.2514 286.879 50.0941C286.81 49.9367 286.776 49.7386 286.777 49.4998C286.777 49.2619 286.811 49.053 286.881 48.8731C286.95 48.693 287.05 48.5478 287.179 48.4375C287.31 48.3263 287.464 48.2547 287.644 48.2227C287.824 48.1908 287.978 48.2074 288.108 48.2724C288.238 48.3374 288.338 48.4474 288.408 48.6026C288.478 48.7571 288.512 48.9533 288.512 49.1914C288.512 49.4307 288.477 49.6415 288.407 49.8237C288.337 50.0057 288.238 50.153 288.109 50.2655C287.979 50.378 287.825 50.4503 287.644 50.4823ZM287.644 50.0999C287.767 50.078 287.865 49.9977 287.939 49.8589C288.012 49.7201 288.049 49.5251 288.048 49.2738C288.048 49.1083 288.031 48.9735 287.998 48.8694C287.965 48.7652 287.918 48.6908 287.857 48.6462C287.797 48.6015 287.726 48.5864 287.644 48.6009C287.522 48.6227 287.424 48.7022 287.35 48.8396C287.277 48.9769 287.24 49.1696 287.239 49.4176C287.239 49.5852 287.256 49.7222 287.289 49.8286C287.322 49.9341 287.369 50.0095 287.43 50.0548C287.491 50.0994 287.562 50.1144 287.644 50.0999Z" fill="#303030"/>
<path d="M306.352 114.109L265 121.46C282.328 118.379 306.352 82.1086 306.352 50.1086V114.109Z" fill="black" fill-opacity="0.1"/>
<circle cx="273.438" cy="79.7999" r="2.5" fill="black" fill-opacity="0.2"/>
<circle cx="271.438" cy="78.7999" r="2.5" fill="#DCDCDC"/>
<rect y="-7.62939e-06" width="320" height="148" fill="black" fill-opacity="0.25"/>
</svg>
