<svg width="363" height="363" viewBox="0 0 363 363" fill="none" xmlns="http://www.w3.org/2000/svg">
<mask id="mask0_15_88" style="mask-type:alpha" maskUnits="userSpaceOnUse" x="0" y="0" width="363" height="363">
<path fill-rule="evenodd" clip-rule="evenodd" d="M162.438 0.214074C160.238 0.444074 152.651 1.77507 145.577 3.17007C81.4027 15.8291 28.5977 62.3301 7.94467 124.372C2.53267 140.628 -1.60033 161.583 0.605669 161.583C0.973669 161.583 4.07667 161.095 7.50267 160.498L13.7317 159.414L15.4517 149.748C21.0237 118.438 35.4857 90.2871 57.8477 67.2231C83.6197 40.6431 116.635 23.6231 155.438 16.9151C162.683 15.6621 170.948 15.1901 185.438 15.2011C203.229 15.2141 206.83 15.5101 218.04 17.8751C260.11 26.7531 294.577 48.9931 317.654 82.1521C321.073 87.0641 324.455 91.9141 325.169 92.9291C326.364 94.6271 326.975 94.6761 332.728 93.5451C336.17 92.8671 339.207 91.9571 339.476 91.5221C340.256 90.2601 326.778 70.9001 318.477 61.3591C296.027 35.5551 262.862 14.9031 229.698 6.07607C212.621 1.53107 204.262 0.415073 184.938 0.0970731C174.763 -0.0689269 164.638 -0.0169263 162.438 0.214074ZM171.938 67.2641C157.455 68.3311 143.373 72.2981 129.642 79.1801C98.5207 94.7771 75.5647 125.699 69.3877 160.341C67.5647 170.564 67.5747 190.251 69.4077 200.702C77.1347 244.762 110.314 280.838 153.438 292.071C179.842 298.948 211.766 294.972 234.594 281.962C243.038 277.151 254.874 268.57 254.913 267.233C254.934 266.505 241.458 250.558 228.254 235.687L224.35 231.29L219.309 234.912C182.784 261.153 131.967 244.22 118.405 201.289C107.42 166.516 125.544 130.31 159.89 118.415C181.222 111.027 206.731 116.444 223.705 131.967L227.971 135.868L234.705 129.534C254.212 111.185 261.856 103.263 261.169 102.107C259.284 98.9361 245.528 87.9551 237.438 83.1651C222.11 74.0891 208.004 69.4851 189.807 67.6171C184.262 67.0491 178.986 66.6621 178.082 66.7581C177.178 66.8541 174.413 67.0821 171.938 67.2641ZM344.654 138.032C341.472 138.74 338.619 139.568 338.314 139.873C337.745 140.442 340.599 155.577 341.432 156.41C341.997 156.975 356.301 154.595 357.76 153.693C358.464 153.258 358.238 150.458 357.062 145.066C355.065 135.909 354.821 135.771 344.654 138.032ZM219.297 183.757C219.437 194.625 219.615 195.61 221.867 198.007C225.268 201.627 230.994 201.599 233.865 197.948C235.721 195.589 235.918 194.099 235.751 183.698L235.563 172.083L235.001 183.733C234.54 193.272 234.093 195.764 232.533 197.483C229.501 200.826 223.147 199.899 221.408 195.861C220.987 194.883 220.306 189.133 219.895 183.083L219.147 172.083L219.297 183.757ZM244.137 186.833C244.246 194.671 244.49 197.841 244.68 193.878L245.024 186.672L251.731 186.324L258.438 185.975L251.688 185.779L244.938 185.583V179.625V173.667L252.688 173.326L260.438 172.985L252.188 172.784L243.938 172.583L244.137 186.833ZM267.137 186.833C267.246 194.671 267.491 197.821 267.681 193.833L268.026 186.583L275.232 186.406L282.438 186.23L275.438 185.656L268.438 185.083L268.139 179.376L267.841 173.669L275.639 173.327L283.438 172.985L275.188 172.784L266.938 172.583L267.137 186.833ZM292.593 174.412C291.683 175.418 290.938 177.674 290.938 179.426C290.938 181.941 291.615 183.024 294.148 184.564C295.913 185.638 298.607 186.791 300.135 187.126C303.021 187.76 306.938 191.843 306.938 194.218C306.938 196.912 303.055 199.584 299.188 199.551C295.184 199.517 292.989 198.298 291.146 195.083C290.194 193.424 289.994 193.369 289.968 194.76C289.919 197.497 294.768 200.583 299.118 200.583C301.937 200.583 303.714 199.898 305.483 198.128C309.98 193.632 307.952 188.981 300.24 186.102C293.964 183.759 291.938 181.895 291.938 178.463C291.938 171.672 303.724 171.771 306.229 178.583C306.665 179.77 306.797 179.718 306.859 178.333C307.089 173.231 296.337 170.275 292.593 174.412ZM355.88 202.06C348.787 203.55 347.943 204.116 347.916 207.392C347.882 211.664 344.337 226.597 340.976 236.63C328.924 272.602 302.316 304.43 268.105 323.796C250.402 333.817 234.509 339.732 212.938 344.325C201.615 346.737 198.367 346.991 178.438 347.03C159.532 347.067 154.89 346.76 145.435 344.845C126.894 341.091 107.155 333.653 92.6377 324.95C71.5627 312.317 51.1307 292.241 38.9897 272.236C36.8957 268.786 36.3397 268.453 33.6007 269C27.3417 270.252 22.9377 271.685 22.9377 272.468C22.9377 272.913 25.4367 277.011 28.4917 281.575C55.3887 321.759 95.5137 348.747 143.938 359.224C158.513 362.377 186.429 363.515 202.713 361.62C221.41 359.444 245.747 352.197 262.355 343.862C305.886 322.012 338.98 283.999 354.548 237.963C358.412 226.537 363.451 202.637 362.222 201.571C361.791 201.198 358.937 201.418 355.88 202.06ZM11.0167 207.188C7.48467 207.96 4.46567 208.722 4.30667 208.881C4.06067 209.127 4.76567 212.594 7.42267 224.193C7.90267 226.29 7.95267 226.293 15.8467 224.693C20.2147 223.807 24.1077 222.759 24.4987 222.364C25.1227 221.732 23.7397 212.225 22.3137 207.333C21.7147 205.279 19.8537 205.255 11.0167 207.188Z" fill="black"/>
</mask>
<g mask="url(#mask0_15_88)">
<rect x="-25.0624" y="-34.4169" width="239" height="425" fill="#264653"/>
<rect x="406.938" y="-75.4169" width="239" height="425" transform="rotate(90 406.938 -75.4169)" fill="#264653"/>
<rect x="413.938" y="205.583" width="239" height="425" transform="rotate(90 413.938 205.583)" fill="#264653"/>
<rect x="571.938" y="411.583" width="239" height="425" transform="rotate(-180 571.938 411.583)" fill="#264653"/>
</g>
</svg>
