<svg width="40" height="40" viewBox="0 0 40 40" fill="none" xmlns="http://www.w3.org/2000/svg">
<g clip-path="url(#clip0_17_104)">
<path d="M34.4315 20.7105C34.8611 23.2493 32.2331 32.1493 23.5287 34.4816C14.5644 36.8835 8.29666 30.0172 7.37151 28.0196" stroke="#264653" stroke-width="1.18359"/>
<path d="M31.9127 11.2061C31.0154 8.79264 24.2894 2.39907 15.585 4.73141C6.62083 7.13336 4.62592 16.2136 4.82355 18.4063" stroke="#264653" stroke-width="1.18359"/>
<path d="M4.74488 22.6856L5.18237 24.3184L6.74137 23.9006L6.30387 22.2679L4.74488 22.6856Z" fill="#264653"/>
<path d="M32.4431 15.2638L32.8806 16.8966L34.4396 16.4789L34.0021 14.8461L32.4431 15.2638Z" fill="#264653"/>
<path d="M24.95 25.2341C21.6912 29.2864 12.0963 27.7449 12.0761 19.1752C12.0593 12.0341 20.5182 9.94259 24.6494 13.8231" stroke="#264653" stroke-width="4.03499"/>
</g>
<defs>
<clipPath id="clip0_17_104">
<rect width="32" height="32" fill="white" transform="translate(8.28223 39.1919) rotate(-105)"/>
</clipPath>
</defs>
</svg>
